<svg xmlns="http://www.w3.org/2000/svg" width="512" height="512" viewBox="0 0 512 512">
  <defs>
    <linearGradient id="mg" x1="0%" y1="0%" x2="100%" y2="100%">
      <stop offset="0%" style="stop-color:#0969da"/>
      <stop offset="50%" style="stop-color:#6639ba"/>
      <stop offset="100%" style="stop-color:#8250df"/>
    </linearGradient>
    <linearGradient id="cg" x1="0%" y1="0%" x2="100%" y2="100%">
      <stop offset="0%" style="stop-color:#0969da;stop-opacity:0.9"/>
      <stop offset="100%" style="stop-color:#8250df;stop-opacity:0.9"/>
    </linearGradient>
    <radialGradient id="db"><stop offset="0%" style="stop-color:#218bff"/><stop offset="100%" style="stop-color:#0969da"/></radialGradient>
    <radialGradient id="dp"><stop offset="0%" style="stop-color:#a475f9"/><stop offset="100%" style="stop-color:#8250df"/></radialGradient>
    <radialGradient id="dg"><stop offset="0%" style="stop-color:#2da44e"/><stop offset="100%" style="stop-color:#1a7f37"/></radialGradient>
    <filter id="sh" x="-10%" y="-10%" width="120%" height="120%">
      <feDropShadow dx="0" dy="3" stdDeviation="6" flood-color="#0969da" flood-opacity="0.2"/>
    </filter>
    <filter id="pg"><feGaussianBlur in="SourceGraphic" stdDeviation="3"/></filter>
  </defs>

  <!-- Light background -->
  <rect width="512" height="512" rx="64" fill="#ffffff"/>

  <!-- Outer hexa -->
  <g filter="url(#sh)">
    <polygon points="256,56 429,156 429,356 256,456 83,356 83,156"
      fill="none" stroke="url(#mg)" stroke-width="4" stroke-linejoin="round" opacity="0.9"/>
  </g>
  <polygon points="256,56 429,156 429,356 256,456 83,356 83,156" fill="url(#mg)" opacity="0.03"/>

  <!-- Middle hexa (ports) -->
  <polygon points="256,106 389,181 389,331 256,406 123,331 123,181"
    fill="none" stroke="url(#mg)" stroke-width="2" stroke-linejoin="round" opacity="0.25" stroke-dasharray="12,6"/>

  <!-- Inner hexa (domain) -->
  <polygon points="256,166 339,214 339,310 256,358 173,310 173,214"
    fill="url(#cg)" opacity="0.08" stroke="url(#cg)" stroke-width="2.5" stroke-linejoin="round"/>

  <!-- Port connectors -->
  <g stroke="url(#mg)" stroke-width="1.5" opacity="0.2">
    <line x1="256" y1="166" x2="256" y2="56"/>
    <line x1="339" y1="214" x2="429" y2="156"/>
    <line x1="339" y1="310" x2="429" y2="356"/>
    <line x1="256" y1="358" x2="256" y2="456"/>
    <line x1="173" y1="310" x2="83" y2="356"/>
    <line x1="173" y1="214" x2="83" y2="156"/>
  </g>

  <!-- Port dot glows -->
  <g filter="url(#pg)" opacity="0.35">
    <circle cx="256" cy="56" r="10" fill="#0969da"/>
    <circle cx="429" cy="156" r="10" fill="#0969da"/>
    <circle cx="429" cy="356" r="10" fill="#8250df"/>
    <circle cx="256" cy="456" r="10" fill="#8250df"/>
    <circle cx="83" cy="356" r="10" fill="#1a7f37"/>
    <circle cx="83" cy="156" r="10" fill="#1a7f37"/>
  </g>

  <!-- Port dots -->
  <circle cx="256" cy="56" r="7" fill="url(#db)"/>
  <circle cx="429" cy="156" r="7" fill="url(#db)"/>
  <circle cx="429" cy="356" r="7" fill="url(#dp)"/>
  <circle cx="256" cy="456" r="7" fill="url(#dp)"/>
  <circle cx="83" cy="356" r="7" fill="url(#dg)"/>
  <circle cx="83" cy="156" r="7" fill="url(#dg)"/>

  <!-- Dot inner rings -->
  <g fill="none" stroke="#fff" stroke-width="2" opacity="0.8">
    <circle cx="256" cy="56" r="4"/>
    <circle cx="429" cy="156" r="4"/>
    <circle cx="429" cy="356" r="4"/>
    <circle cx="256" cy="456" r="4"/>
    <circle cx="83" cy="356" r="4"/>
    <circle cx="83" cy="156" r="4"/>
  </g>

  <!-- Center core hexa -->
  <polygon points="256,232 276,244 276,268 256,280 236,268 236,244" fill="url(#cg)" opacity="0.6"/>
  <polygon points="256,232 276,244 276,268 256,280 236,268 236,244" fill="none" stroke="#fff" stroke-width="1.5" opacity="0.7"/>

  <!-- Adapter edge marks -->
  <g opacity="0.45">
    <rect x="338" y="102" width="16" height="4" rx="2" fill="#0969da" transform="rotate(-30, 346, 104)"/>
    <rect x="425" y="254" width="16" height="4" rx="2" fill="#6639ba" transform="rotate(90, 433, 256)"/>
    <rect x="338" y="404" width="16" height="4" rx="2" fill="#8250df" transform="rotate(30, 346, 406)"/>
    <rect x="158" y="404" width="16" height="4" rx="2" fill="#8250df" transform="rotate(-30, 166, 406)"/>
    <rect x="71" y="254" width="16" height="4" rx="2" fill="#1a7f37" transform="rotate(90, 79, 256)"/>
    <rect x="158" y="102" width="16" height="4" rx="2" fill="#1a7f37" transform="rotate(30, 166, 104)"/>
  </g>
</svg>
